<?xml version="1.0" encoding="UTF-8"?>
      <mxfile host="codeviz.app" modified="2025-08-29T23:17:28.236Z" agent="CodeViz Exporter" version="14.6.5" type="device">
        <diagram id="codeviz-diagram" name="System Diagram">
          <mxGraphModel dx="1000" dy="1000" grid="1" gridSize="10" guides="1" tooltips="1" connect="1" arrows="1" fold="1" page="1" pageScale="1" pageWidth="1169" pageHeight="827" math="0" shadow="0">
            <root>
              <mxCell id="0"/>
              <mxCell id="1" parent="0"/>
              <mxCell id="5" value="" style="html=1;whiteSpace=wrap;container=1;fillColor=#dae8fc;strokeColor=#6c8ebf;dashed=1;fillOpacity=20;strokeWidth=2;containerType=none;recursiveResize=0;movable=1;resizable=1;autosize=0;dropTarget=0" vertex="1" parent="4">
                <mxGeometry x="50" y="90" width="390" height="220" as="geometry"/>
              </mxCell>
              <mxCell id="5_label" value="Documentation and Licensing&lt;br&gt;Text/Markdown" style="edgeLabel;html=1;align=center;verticalAlign=middle;resizable=0;labelBackgroundColor=white;spacing=5" vertex="1" parent="4">
                <mxGeometry x="58" y="98" width="314" height="24" as="geometry"/>
              </mxCell>
<mxCell id="6" value="" style="html=1;whiteSpace=wrap;container=1;fillColor=#dae8fc;strokeColor=#6c8ebf;dashed=1;fillOpacity=20;strokeWidth=2;containerType=none;recursiveResize=0;movable=1;resizable=1;autosize=0;dropTarget=0" vertex="1" parent="4">
                <mxGeometry x="430" y="90" width="390" height="220" as="geometry"/>
              </mxCell>
              <mxCell id="6_label" value="Project Definition&lt;br&gt;Python Packaging" style="edgeLabel;html=1;align=center;verticalAlign=middle;resizable=0;labelBackgroundColor=white;spacing=5" vertex="1" parent="4">
                <mxGeometry x="438" y="98" width="314" height="24" as="geometry"/>
              </mxCell>
<mxCell id="8" value="" style="html=1;whiteSpace=wrap;container=1;fillColor=#dae8fc;strokeColor=#6c8ebf;dashed=1;fillOpacity=20;strokeWidth=2;containerType=none;recursiveResize=0;movable=1;resizable=1;autosize=0;dropTarget=0" vertex="1" parent="7">
                <mxGeometry x="50" y="90" width="390" height="220" as="geometry"/>
              </mxCell>
              <mxCell id="8_label" value="Configuration and Utilities&lt;br&gt;Python" style="edgeLabel;html=1;align=center;verticalAlign=middle;resizable=0;labelBackgroundColor=white;spacing=5" vertex="1" parent="7">
                <mxGeometry x="58" y="98" width="314" height="24" as="geometry"/>
              </mxCell>
<mxCell id="9" value="" style="html=1;whiteSpace=wrap;container=1;fillColor=#dae8fc;strokeColor=#6c8ebf;dashed=1;fillOpacity=20;strokeWidth=2;containerType=none;recursiveResize=0;movable=1;resizable=1;autosize=0;dropTarget=0" vertex="1" parent="7">
                <mxGeometry x="430" y="90" width="690" height="220" as="geometry"/>
              </mxCell>
              <mxCell id="9_label" value="Data Transformation Functions&lt;br&gt;Python" style="edgeLabel;html=1;align=center;verticalAlign=middle;resizable=0;labelBackgroundColor=white;spacing=5" vertex="1" parent="7">
                <mxGeometry x="438" y="98" width="614" height="24" as="geometry"/>
              </mxCell>
<mxCell id="2" value="" style="html=1;whiteSpace=wrap;container=1;fillColor=#dae8fc;strokeColor=#6c8ebf;dashed=1;fillOpacity=20;strokeWidth=2;containerType=none;recursiveResize=0;movable=1;resizable=1;autosize=0;dropTarget=0" vertex="1" parent="1">
                <mxGeometry x="50" y="90" width="690" height="220" as="geometry"/>
              </mxCell>
              <mxCell id="2_label" value="Diagrams and Examples&lt;br&gt;Documentation" style="edgeLabel;html=1;align=center;verticalAlign=middle;resizable=0;labelBackgroundColor=white;spacing=5" vertex="1" parent="1">
                <mxGeometry x="58" y="98" width="614" height="24" as="geometry"/>
              </mxCell>
<mxCell id="4" value="" style="html=1;whiteSpace=wrap;container=1;fillColor=#dae8fc;strokeColor=#6c8ebf;dashed=1;fillOpacity=20;strokeWidth=2;containerType=none;recursiveResize=0;movable=1;resizable=1;autosize=0;dropTarget=0" vertex="1" parent="3">
                <mxGeometry x="210" y="500" width="830" height="320" as="geometry"/>
              </mxCell>
              <mxCell id="4_label" value="Project Metadata and Packaging&lt;br&gt;Python" style="edgeLabel;html=1;align=center;verticalAlign=middle;resizable=0;labelBackgroundColor=white;spacing=5" vertex="1" parent="3">
                <mxGeometry x="218" y="508" width="754" height="24" as="geometry"/>
              </mxCell>
<mxCell id="7" value="" style="html=1;whiteSpace=wrap;container=1;fillColor=#dae8fc;strokeColor=#6c8ebf;dashed=1;fillOpacity=20;strokeWidth=2;containerType=none;recursiveResize=0;movable=1;resizable=1;autosize=0;dropTarget=0" vertex="1" parent="3">
                <mxGeometry x="60" y="100" width="1130" height="320" as="geometry"/>
              </mxCell>
              <mxCell id="7_label" value="Main Module&lt;br&gt;Python" style="edgeLabel;html=1;align=center;verticalAlign=middle;resizable=0;labelBackgroundColor=white;spacing=5" vertex="1" parent="3">
                <mxGeometry x="68" y="108" width="1054" height="24" as="geometry"/>
              </mxCell>
<mxCell id="1" value="" style="html=1;whiteSpace=wrap;container=1;fillColor=#dae8fc;strokeColor=#6c8ebf;dashed=1;fillOpacity=20;strokeWidth=2;containerType=none;recursiveResize=0;movable=1;resizable=1;autosize=0;dropTarget=0" vertex="1" parent="1">
                <mxGeometry x="32" y="297" width="750" height="320" as="geometry"/>
              </mxCell>
              <mxCell id="1_label" value="Documentation System&lt;br&gt;Various" style="edgeLabel;html=1;align=center;verticalAlign=middle;resizable=0;labelBackgroundColor=white;spacing=5" vertex="1" parent="1">
                <mxGeometry x="40" y="305" width="674" height="24" as="geometry"/>
              </mxCell>
<mxCell id="3" value="" style="html=1;whiteSpace=wrap;container=1;fillColor=#dae8fc;strokeColor=#6c8ebf;dashed=1;fillOpacity=20;strokeWidth=2;containerType=none;recursiveResize=0;movable=1;resizable=1;autosize=0;dropTarget=0" vertex="1" parent="1">
                <mxGeometry x="1594" y="584" width="1190" height="820" as="geometry"/>
              </mxCell>
              <mxCell id="3_label" value="Core PyBroom Library&lt;br&gt;Python" style="edgeLabel;html=1;align=center;verticalAlign=middle;resizable=0;labelBackgroundColor=white;spacing=5" vertex="1" parent="1">
                <mxGeometry x="1602" y="592" width="1114" height="24" as="geometry"/>
              </mxCell>
              <mxCell id="10" value="User&lt;br&gt;External Actor" style="rounded=1;whiteSpace=wrap;html=1;fillColor=#f5f5f5" vertex="1" parent="1">
                    <mxGeometry x="817" y="12" width="120" height="60" as="geometry"/>
                  </mxCell>
<mxCell id="21" value="sequence-diagram.md&lt;br&gt;Markdown" style="rounded=1;whiteSpace=wrap;html=1;fillColor=#f5f5f5" vertex="1" parent="2">
                    <mxGeometry x="190" y="120" width="120" height="60" as="geometry"/>
                  </mxCell>
<mxCell id="22" value="sequence-diagram.png&lt;br&gt;PNG Image" style="rounded=1;whiteSpace=wrap;html=1;fillColor=#f5f5f5" vertex="1" parent="2">
                    <mxGeometry x="340" y="120" width="120" height="60" as="geometry"/>
                  </mxCell>
<mxCell id="23" value="sequenceDiagram.mmd&lt;br&gt;Mermaid Source" style="rounded=1;whiteSpace=wrap;html=1;fillColor=#f5f5f5" vertex="1" parent="2">
                    <mxGeometry x="40" y="120" width="120" height="60" as="geometry"/>
                  </mxCell>
<mxCell id="24" value="terminal-output-example.log&lt;br&gt;Log File" style="rounded=1;whiteSpace=wrap;html=1;fillColor=#f5f5f5" vertex="1" parent="2">
                    <mxGeometry x="490" y="120" width="120" height="60" as="geometry"/>
                  </mxCell>
<mxCell id="11" value="broom_dataframe&lt;br&gt;Python Function" style="rounded=1;whiteSpace=wrap;html=1;fillColor=#f5f5f5" vertex="1" parent="9">
                    <mxGeometry x="190" y="120" width="120" height="60" as="geometry"/>
                  </mxCell>
<mxCell id="12" value="_apply_transformations&lt;br&gt;Python Function" style="rounded=1;whiteSpace=wrap;html=1;fillColor=#f5f5f5" vertex="1" parent="9">
                    <mxGeometry x="340" y="120" width="120" height="60" as="geometry"/>
                  </mxCell>
<mxCell id="13" value="_handle_missing_values&lt;br&gt;Python Function" style="rounded=1;whiteSpace=wrap;html=1;fillColor=#f5f5f5" vertex="1" parent="9">
                    <mxGeometry x="40" y="120" width="120" height="60" as="geometry"/>
                  </mxCell>
<mxCell id="14" value="_convert_data_types&lt;br&gt;Python Function" style="rounded=1;whiteSpace=wrap;html=1;fillColor=#f5f5f5" vertex="1" parent="9">
                    <mxGeometry x="490" y="120" width="120" height="60" as="geometry"/>
                  </mxCell>
<mxCell id="15" value="_validate_config&lt;br&gt;Python Function" style="rounded=1;whiteSpace=wrap;html=1;fillColor=#f5f5f5" vertex="1" parent="8">
                    <mxGeometry x="40" y="120" width="120" height="60" as="geometry"/>
                  </mxCell>
<mxCell id="16" value="_get_column_names&lt;br&gt;Python Function" style="rounded=1;whiteSpace=wrap;html=1;fillColor=#f5f5f5" vertex="1" parent="8">
                    <mxGeometry x="190" y="120" width="120" height="60" as="geometry"/>
                  </mxCell>
<mxCell id="17" value="pyproject.toml&lt;br&gt;TOML" style="rounded=1;whiteSpace=wrap;html=1;fillColor=#f5f5f5" vertex="1" parent="6">
                    <mxGeometry x="40" y="120" width="120" height="60" as="geometry"/>
                  </mxCell>
<mxCell id="18" value="setup.py&lt;br&gt;Python Script" style="rounded=1;whiteSpace=wrap;html=1;fillColor=#f5f5f5" vertex="1" parent="6">
                    <mxGeometry x="190" y="120" width="120" height="60" as="geometry"/>
                  </mxCell>
<mxCell id="19" value="README.md&lt;br&gt;Markdown" style="rounded=1;whiteSpace=wrap;html=1;fillColor=#f5f5f5" vertex="1" parent="5">
                    <mxGeometry x="40" y="120" width="120" height="60" as="geometry"/>
                  </mxCell>
<mxCell id="20" value="LICENSE&lt;br&gt;Text" style="rounded=1;whiteSpace=wrap;html=1;fillColor=#f5f5f5" vertex="1" parent="5">
                    <mxGeometry x="190" y="120" width="120" height="60" as="geometry"/>
                  </mxCell>
              <mxCell id="edge-2" style="edgeStyle=orthogonalEdgeStyle;rounded=1;orthogonalLoop=1;jettySize=auto;html=1;strokeColor=#808080;strokeWidth=2;jumpStyle=arc;jumpSize=10;spacing=15;labelBackgroundColor=white;labelBorderColor=none" edge="1" parent="1" source="10" target="1">
                  <mxGeometry relative="1" as="geometry"/>
                </mxCell>
                <mxCell id="edge-2_label" value="reads" style="edgeLabel;html=1;align=center;verticalAlign=middle;resizable=0;points=[];" vertex="1" connectable="0" parent="edge-2">
                  <mxGeometry x="-0.2" y="10" relative="1" as="geometry">
                    <mxPoint as="offset"/>
                  </mxGeometry>
                </mxCell>
<mxCell id="edge-1" style="edgeStyle=orthogonalEdgeStyle;rounded=1;orthogonalLoop=1;jettySize=auto;html=1;strokeColor=#808080;strokeWidth=2;jumpStyle=arc;jumpSize=10;spacing=15;labelBackgroundColor=white;labelBorderColor=none" edge="1" parent="1" source="10" target="7">
                  <mxGeometry relative="1" as="geometry"/>
                </mxCell>
                <mxCell id="edge-1_label" value="uses" style="edgeLabel;html=1;align=center;verticalAlign=middle;resizable=0;points=[];" vertex="1" connectable="0" parent="edge-1">
                  <mxGeometry x="-0.2" y="10" relative="1" as="geometry">
                    <mxPoint as="offset"/>
                  </mxGeometry>
                </mxCell>
<mxCell id="edge-3" style="edgeStyle=orthogonalEdgeStyle;rounded=1;orthogonalLoop=1;jettySize=auto;html=1;strokeColor=#808080;strokeWidth=2;jumpStyle=arc;jumpSize=10;spacing=15;labelBackgroundColor=white;labelBorderColor=none" edge="1" parent="1" source="7" target="4">
                  <mxGeometry relative="1" as="geometry"/>
                </mxCell>
                <mxCell id="edge-3_label" value="uses" style="edgeLabel;html=1;align=center;verticalAlign=middle;resizable=0;points=[];" vertex="1" connectable="0" parent="edge-3">
                  <mxGeometry x="-0.2" y="10" relative="1" as="geometry">
                    <mxPoint as="offset"/>
                  </mxGeometry>
                </mxCell>
            </root>
          </mxGraphModel>
        </diagram>
      </mxfile>